<svg width="421" height="464" viewBox="0 0 421 464" fill="none" xmlns="http://www.w3.org/2000/svg">
<path d="M300.081 5.43955C302.297 2.04586 306.076 0 310.129 0H388.454C397.869 0 403.617 10.3489 398.641 18.3422L124.709 458.342C122.518 461.861 118.666 464 114.521 464H22.8475C13.3152 464 7.58826 453.421 12.7996 445.44L300.081 5.43955Z" fill="black"/>
<path d="M310.539 458.377C308.344 461.876 304.504 464 300.374 464H216.827C207.355 464 201.617 453.54 206.707 445.551L316.987 272.465C319.19 269.006 323.007 266.913 327.107 266.913H408.973C418.408 266.913 424.152 277.298 419.138 285.29L310.539 458.377Z" fill="black"/>
<path d="M105.731 191.465C103.536 194.963 99.6965 197.087 95.5664 197.087H12.0195C2.54742 197.087 -3.19062 186.627 1.89908 178.639L112.179 5.55192C114.382 2.09374 118.199 0 122.299 0H204.165C213.6 0 219.345 10.3859 214.33 18.3777L105.731 191.465Z" fill="black"/>
</svg>
