<?xml version="1.0" encoding="UTF-8"?>
<svg width="1200pt" height="1200pt" version="1.1" viewBox="0 0 1200 1200" xmlns="http://www.w3.org/2000/svg">
 <path d="m1087.5 616.88v-1.125c0.18359-1.3672 0.18359-2.7578 0-4.125-0.41406-2.168-1.1719-4.2578-2.25-6.1875-0.68359-1.168-1.4375-2.293-2.25-3.375-1.125-1.6875-2.625-3.1875-3.9375-4.875s-6.375-7.6875-9.9375-11.25l-2.25-2.0625v-1.3125c-1.8867-3.2383-3.9531-6.3672-6.1875-9.375-4.9609-6.543-10.281-12.801-15.938-18.75l-32.062-35.25c-21.188-23.438-42.562-46.688-64.688-69.375-11.625-12.188-23.438-24.188-35.25-36.188l-18.75-18.75-18.75-17.438c-11.062-10.5-22.5-20.812-33.562-31.125l-18.75-17.438c-5.8125-5.4375-12-10.688-18.75-15.938l-7.5-6.1875-5.25-3.9375v-2.8125c0.10547-2.0625 0.10547-4.125 0-6.1875-0.085938-1.125-0.085938-2.25 0-3.375-1.2266-1.2773-2.543-2.4688-3.9375-3.5625-0.58594-1.4844-1.4805-2.8242-2.625-3.9375-1.2891-1.0195-2.8594-1.6094-4.5-1.6875-2.1641-0.015625-4.1992 1.0352-5.4375 2.8125-0.64844 1.0156-1.0352 2.1758-1.125 3.375-0.09375 0.87109-0.09375 1.7539 0 2.625v2.25 3h-1.3125c-1.5 0-2.8125 1.6875-1.5 3 0.77344 0.52344 1.4688 1.1562 2.0625 1.875l1.3125 1.3125v7.875 9.5625c-0.99609-0.50781-2.0742-0.82422-3.1875-0.9375-1.6445 0.058594-3.2539 0.50781-4.6875 1.3125-1.4336 0.75-2.6562 1.8477-3.5625 3.1875 0 0 0 2.0625-1.3125 3.1875-0.089844 1.5-0.089844 3 0 4.5-0.10156 1.9375-0.10156 3.875 0 5.8125v11.25 31.125 17.625c-0.17578 2.3711-0.17578 4.7539 0 7.125v17.812c0 10.5 1.875 21 2.8125 31.688 0.65625 8.8633 0.65625 17.762 0 26.625v1.875l-29.625-3.75-14.438-2.4375-45.375-9.375-50.438-9.375c-15.938-3-31.875-5.625-48-8.0625-11.438-1.6875-23.062-3.375-34.688-4.6875h1.875-17.25l-50.062-5.8125-48.75-6.375-52.5-5.625-26.25-3.1875-9.5625-1.6875-52.5-9-47.25-7.875-16.312-2.625-4.6875-1.6875c-8.4375-2.8125-17.062-5.4375-25.688-7.875l-32.438-8.625-4.125-1.125-6.375-2.4375h-3.375c-1.375-0.089844-2.75-0.089844-4.125 0-2.1328 0.16406-4.1289 1.0977-5.625 2.625-1.3438-3.7109-4.8672-6.1875-8.8125-6.1875-2.4062 0.007812-4.7344 0.87109-6.5625 2.4375l-1.5 1.6875c-0.74609 1.3125-1.1328 2.8008-1.125 4.3125v5.8125 7.3125c0 3.75 0 7.3125-0.9375 11.062 0 8.625 0 17.25-1.5 25.875 0 15.562-0.9375 30.938-1.5 46.5v91.125 25.125c0 24.938-1.6875 49.875-1.875 75 0 30.75 1.125 61.312 2.8125 91.875 0 13.875 1.6875 27.562 2.625 41.438 0 7.3125 0 14.438 1.5 21.75v10.312 5.625c0.10156 2.2891 0.47656 4.5547 1.125 6.75v1.125 4.6875h-1.5l-2.625 0.9375h-2.4375c-1.2852 0.72656-2.4297 1.6797-3.375 2.8125-2.0781 1.8125-2.8906 4.6836-2.0625 7.3125 1.082 3.418 4.293 5.7109 7.875 5.625 1.4961 0.17969 3.0039 0.17969 4.5 0v1.6875l2.0625 2.25c0.9375 6.5625 2.0625 13.312 3.5625 19.875 0.57031 2.8008 1.5156 5.5156 2.8125 8.0625 0.55859 1.043 1.1836 2.043 1.875 3 1.6328 2.1289 3.6719 3.9141 6 5.25 2.2031 1.1289 4.6484 1.707 7.125 1.6875 2.293 0.17969 4.5938-0.14062 6.75-0.9375 1.75-0.4375 3.4062-1.2031 4.875-2.25l4.875-3.5625c3.3047 0.40234 6.4102-1.668 7.3125-4.875h4.875c7.875-1.875 15.75-3.9375 23.438-6.1875 16.5-5.0625 32.625-10.875 48.938-16.5 31.625-11.125 63.312-22 95.062-32.625 6.1875-1.5 12.375-2.8125 18.75-4.5 33.375-8.0625 66.375-16.688 99.562-25.312s66.188-17.25 99.188-26.062 65.438-17.625 98.062-26.812l46.688-14.625c15.375-4.6875 30.938-9.5625 46.312-14.625l6.375-2.25c0.42578 3.6562 1.0547 7.2852 1.875 10.875l2.25 11.25c1.6875 7.125 3.375 14.25 4.875 21.375 3.5625 15 7.5 30.188 11.062 45.188 2.25 9.5625 3.9375 18.75 5.625 28.688l1.125 9.75c0 3.9375 0 7.875 1.5 11.812-0.085938 0.37109-0.085938 0.75391 0 1.125-0.09375 1.25-0.09375 2.5 0 3.75-0.089844 1.0625-0.089844 2.125 0 3.1875-0.089844 1.75-0.089844 3.5 0 5.25v6.5625c1.3125 7.3125 2.8125 14.625 4.5 21.75 0.98828 3.625 2.1797 7.1914 3.5625 10.688v2.4375l1.5 3c0.63672 1.1367 1.3906 2.207 2.25 3.1875 2.0938 2.0898 4.7539 3.5234 7.6523 4.125 2.8984 0.59766 5.9062 0.33984 8.6602-0.75 3.5078-1.2188 6.8008-2.9922 9.75-5.25 2.0781-1.457 4.082-3.0234 6-4.6875l9.5625-7.5c8.6445-5.7812 16.91-12.105 24.75-18.938 2.0234-1.9258 3.9023-3.9922 5.625-6.1875 1.5-1.875 3.1875-3.5625 4.5-5.4375l1.125-1.6875c4.3125-3.75 8.625-7.3125 12.562-11.25s10.5-11.062 15.562-16.688 12.188-13.875 18.75-21l15-18.75c20.25-24.188 41.25-47.812 62.062-71.438 9.5625-10.875 18.75-21.562 28.125-32.812 1.125-1.5 2.4375-3 3.5625-4.6875 6.1875-7.6875 11.812-15.562 17.625-23.438l5.25-6.1875c3.6914-4.3672 6.957-9.0742 9.75-14.062 4.875-6.75 9.9375-13.5 14.438-20.625 2.8555-4.457 5.4219-9.0898 7.6875-13.875 1.1797-2.3359 2.1211-4.7852 2.8125-7.3125 0.089844-1.5 0.089844-3 0-4.5v-3.1875zm-547.12-173.62m-227.81-25.875m-12.562 13.875h-2.25l13.312 1.6875h-2.4375l37.5 4.6875h-2.4375l14.438 1.6875h-1.875l9.75 1.125 68.25 11.625c33 5.4375 66.188 10.125 99.188 14.812s67.5 9 101.25 13.312l48.188 6.375 46.688 6.1875 21.938 3.5625 14.062 2.0625 8.0625 0.9375h4.5c3.5703 0.36719 7.0469-1.3008 9-4.3125 1.3164-1.9219 1.6602-4.3477 0.9375-6.5625-0.39062-1.2812-1.0977-2.4453-2.0625-3.375 0.10547-0.68359 0.10547-1.3789 0-2.0625 0.097656-1.1836 0.097656-2.3789 0-3.5625v-6.9375-11.438-23.062-35.25-7.3125c0.61328-0.44922 1.0195-1.125 1.125-1.875 0-3.75 1.5-7.5 1.6875-11.25v-7.125-10.312-12.562-11.812-18.75l13.5 13.312c11.812 11.812 23.438 23.625 35.062 35.625s25.125 21.188 35.25 32.438l32.625 34.875 17.25 18.75 16.125 18.75c10.312 11.625 20.812 23.062 31.688 34.312l30.562 30.75 15.188 15.562c4.5 4.6875 8.625 9.375 12.938 14.25l14.062 17.438c2.25 2.8125 4.5 5.625 6.9375 8.25-0.49219 1.2656-0.49219 2.6719 0 3.9375-0.085938 0.87109-0.085938 1.7539 0 2.625l-1.3125 1.6875-6.375 7.6875-11.625 13.688-5.8125 5.625c-11.25 11.438-22.312 22.688-33.188 34.312s-21.562 23.812-32.062 35.812-21.75 24.188-32.438 36.375c-21.375 24.75-42.75 49.688-64.5 75-8.625 9.9375-17.625 18.75-26.625 29.062l-13.5 14.438-6.75 7.3125-3 3.375v-3c-3.1875-15.188-6.5625-30.375-9.375-45.375s-4.6875-28.688-7.3125-42.938c0.39062-0.71484 0.70703-1.4688 0.9375-2.25 0.10547-1.0586 0.10547-2.1289 0-3.1875 0.09375-1.5625 0.09375-3.125 0-4.6875v-5.625c0-3.375 0-6.5625-0.9375-9.9375 0-7.3125-1.875-14.812-3-22.125s-2.25-14.062-3.75-21c0-3.1875-1.5-6.5625-2.4375-9.5625-0.32422-1.2266-0.76172-2.418-1.3125-3.5625 0.10156-0.68359 0.10156-1.3789 0-2.0625l-1.5-3.375-1.125-1.3125s0-1.125-1.5-1.125c-2.8945-2.2422-6.4648-3.4336-10.125-3.375h-2.625c-1.4102-1.0586-3.1133-1.6484-4.875-1.6875-1.5742-0.023438-3.125 0.36328-4.5 1.125-1.2656 0.67969-2.3555 1.6445-3.1875 2.8125v1.5l-3.5625 1.5c-0.86328-0.19531-1.7617-0.19531-2.625 0h-6.75l-3 1.5-3.1875 2.25c-3.75 0-7.3125 1.125-11.062 2.0625l-52.875 11.25c-33.25 7.375-66.375 15.062-99.375 23.062-31.125 7.5-62.062 15.938-92.812 24.375l-5.25 1.3125c-33.562 8.625-66.938 16.875-100.12 26.062-15.75 4.5-31.312 9.1875-46.875 14.25s-30.938 10.125-46.312 15.562l-41.25 14.625-5.625 1.5c-15.75 4.6875-31.5 9-47.438 13.312l-35.062 9.375-3.9375 1.125c0.09375-1.5 0.09375-3 0-4.5v-2.4375-6.1875-11.438c0-7.125 0-14.438-1.125-21.562 0-15.938-2.0625-31.875-2.8125-47.812 0-21.562-1.5-43.125-2.0625-64.688v-26.625c0-30.938 1.875-61.875 3-93.75 0-14.812 1.125-29.625 1.125-44.438s0-30.938-1.3125-46.312-1.875-31.125-3.1875-46.688c0-8.625-1.5-17.062-2.25-25.5l2.0625 1.125c0.74219 0.16797 1.5078 0.16797 2.25 0h1.5l1.125 0.9375 3.9375 1.5 3.375 1.3125h3.5625l6.375 1.5 11.438 2.0625 25.312 3.5625 49.125 6.1875z"/>
</svg>
