<?xml version="1.0" encoding="UTF-8"?>
<svg width="1200pt" height="1200pt" version="1.1" viewBox="0 0 1200 1200" xmlns="http://www.w3.org/2000/svg">
 <path d="m1076 512c-16 32-36 64-60 96-8 16-24 32-8 56 12 16 40 16 56 0 28-48 60-96 88-148 12-16 20-32 32-48 8-16 24-32 8-56-16-20-36-12-60-8-52 8-160 8-220 12-52 0-52 44-28 64 8 4 20 4 36 4 24 0 48-4 76-4-4 8-80 56-88 60l-84 60c-32 24-136 108-184 112 12-32 64-84 88-148s-24-124-72-148c-112-56-268 56-332 104-84 68-188 128-272 192-16 12-56 32-52 60 4 16 16 28 32 28 20 0 28-12 40-20l276-192c60-48 244-184 308-84 40 64-112 164-92 236 8 32 40 44 80 40 56-4 120-52 156-76 12-8 256-184 276-192z" fill-rule="evenodd"/>
</svg>
