<?xml version="1.0" encoding="UTF-8"?>
<svg width="1200pt" height="1200pt" version="1.1" viewBox="0 0 1200 1200" xmlns="http://www.w3.org/2000/svg">
 <g transform="rotate(180 600 600)">
<path d="m1090.8 678c-10.801-12-21.602-22.801-33.602-32.398-12-9.6016-25.199-18-38.398-26.398-6-3.6016-13.199-8.3984-20.398-12l-2.3984-1.1992c63.602-1.1992 104.4-2.3984 104.4-2.3984v-2.3984s-45.602-1.1992-115.2-2.3984c8.3984-7.1992 15.602-14.398 25.199-19.199 12-7.1992 26.398-13.199 38.398-20.398 6-3.6016 12-7.1992 18-12 6-4.8008 12-8.3984 16.801-13.199 10.801-9.6016 21.602-19.199 31.199-31.199l-1.1992-2.3984c-14.398 3.6016-27.602 10.801-40.801 18-6 3.6016-12 7.1992-19.199 10.801-6 3.6016-12 8.3984-18 13.199-10.801 9.6016-20.398 20.398-31.199 30-10.801 9.6016-22.801 18-36 24l-2.3984 1.1992c-19.199 0-40.801-1.1992-62.398-1.1992 7.1992-6 14.398-10.801 21.602-15.602 12-7.1992 26.398-12 38.398-19.199 6-3.6016 12-7.1992 18-12s10.801-9.6016 15.602-14.398c4.8008-4.8008 10.801-9.6016 14.398-15.602 4.8008-6 9.6016-10.801 13.199-16.801l-1.1992-2.3984c-7.1992 2.3984-13.199 6-19.199 9.6016s-12 7.1992-18 10.801c-6 3.6016-12 7.1992-18 12-6 3.6016-12 8.3984-16.801 13.199s-10.801 9.6016-15.602 14.398c-4.8008 4.8008-10.801 9.6016-15.602 14.398-6 4.8008-12 8.3984-18 12s-12 7.1992-19.199 9.6016c-25.199 0-51.602-1.1992-78-1.1992 6-4.8008 13.199-9.6016 20.398-13.199 6-3.6016 13.199-7.1992 20.398-9.6016 7.1992-3.6016 13.199-6 20.398-9.6016 6-3.6016 13.199-7.1992 19.199-12s12-9.6016 16.801-14.398c10.801-10.801 21.602-21.602 28.801-34.801l-1.1992-2.3984c-7.1992 2.3984-14.398 6-20.398 9.6016-6 3.6016-13.199 7.1992-19.199 10.801-6 3.6016-12 8.3984-18 12-6 3.6016-12 8.3984-16.801 13.199-6 4.8008-10.801 10.801-15.602 15.602-6 4.8008-10.801 9.6016-16.801 13.199-6 3.6016-12 7.1992-19.199 10.801-7.1992 3.6016-13.199 6-20.398 8.3984h-1.1992c-40.801-1.1992-84-1.1992-127.2-2.3984-55.199-1.1992-110.4-2.3984-163.2-3.6016-26.398 0-51.602 0-75.602 1.1992-24 0-46.801 1.1992-67.199 2.3984-20.398 1.1992-39.602 2.3984-56.398 2.3984-6 0-10.801 0-15.602 1.1992 3.6016-3.6016 7.1992-9.6016 12-18 4.8008-8.3984 8.3984-20.398 8.3984-33.602 0-14.398-4.8008-31.199-18-44.398-7.1992-7.1992-15.602-12-25.199-14.398-9.6016-2.3984-20.398-2.3984-30-1.1992-20.398 3.6016-37.199 18-50.398 31.199-13.199 14.398-27.602 28.801-42 43.199-14.398 14.398-30 27.602-48 38.398l-1.1992 1.1992c0-1.1992-4.8008 7.1992-2.3984 4.8008 0 0 0 3.6016 1.1992 4.8008 2.3945 3.5898 2.3945 2.3867 2.3945 2.3867l2.3984 3.6016 16.801 16.801c7.1992 7.1992 14.398 14.398 22.801 21.602 15.602 13.199 30 26.398 45.602 39.602 15.602 12 33.602 24 54 27.602l8.3984 1.1992h8.3984c2.3984 0 4.8008-1.1992 8.3984-1.1992h1.1992 2.3984l3.6016-1.1992c10.801-3.6016 18-9.6016 25.199-16.801 13.199-14.398 16.801-31.199 16.801-45.602-1.1992-14.398-6-25.199-10.801-33.602-2.3984-3.6016-4.8008-7.1992-6-9.6016 4.8008 0 9.6016 0 14.398 1.1992 16.801 1.1992 36 2.3984 56.398 2.3984 20.398 1.1992 43.199 1.1992 67.199 2.3984s49.199 1.1992 75.602 1.1992c51.602 0 108-1.1992 163.2-2.3984 44.398-1.1992 88.801-1.1992 130.8-2.3984 9.6016 8.3984 19.199 15.602 28.801 22.801 10.801 8.3984 21.602 16.801 32.398 24 10.801 7.1992 22.801 14.398 34.801 21.602 12 7.1992 24 13.199 37.199 19.199l1.1992-2.3984c-8.3984-12-16.801-21.602-27.602-32.398-9.6016-9.6016-20.398-19.199-31.199-27.602-10.801-8.3984-22.801-15.602-34.801-22.801-2.3984-1.1992-4.8008-2.3984-7.1992-3.6016 22.801 0 44.398-1.1992 64.801-1.1992 2.3984 2.3984 6 3.6016 8.3984 6 2.3984 2.3984 6 3.6016 8.3984 6 4.8008 4.8008 10.801 8.3984 15.602 13.199 10.801 9.6016 20.398 20.398 31.199 30 10.801 9.6016 24 19.199 38.398 25.199 3.6016 2.3984 7.1992 2.3984 10.801 4.8008 3.6016 1.1992 6 2.3984 9.6016 3.6016 6 2.3984 12 6 14.398 13.199h2.3984c1.1992-8.3984-3.6016-16.801-9.6016-21.602-6-6-12-10.801-16.801-14.398-10.801-8.3984-20.398-18-31.199-28.801-10.801-9.6016-21.602-19.199-34.801-28.801-3.6016-2.3984-8.3984-6-13.199-8.3984 14.398 0 28.801-1.1992 42-1.1992h8.3984c12 9.6016 22.801 20.398 34.801 30 12 9.6016 22.801 19.199 34.801 28.801 12 9.6016 24 18 37.199 26.398 13.199 8.3984 25.199 16.801 39.602 24l1.1992-1.1992c-9.5859-15.602-20.387-28.801-29.984-39.602zm-808.8-26.398c-1.1992 10.801-6 22.801-15.602 30-4.8008 3.6016-10.801 7.1992-15.602 8.3984-7.1992 2.3984-13.199 2.3984-20.398 0-14.398-2.3984-28.801-12-44.398-21.602-15.602-10.801-31.199-22.801-46.801-34.801-8.3984-6-16.801-12-25.199-18l-12-9.6016-4.8008-3.6016c14.398-13.199 27.602-26.398 40.801-39.602 14.398-14.398 30-27.602 45.602-38.398 15.602-10.801 31.199-18 46.801-20.398 15.602-2.3984 28.801 1.1992 37.199 9.6016 9.6016 8.3984 14.398 20.398 15.602 31.199 1.1992 10.801 0 21.602-2.3984 30-2.3984 8.3984-4.8008 14.398-7.1992 19.199 0 1.1992-1.1992 1.1992-1.1992 2.3984h-1.1992c-1.1992-1.1992-1.1992-2.3984-1.1992-2.3984l-2.3984 1.1992v1.1992c-6 0-12 1.1992-18 1.1992-24 1.1992-38.398 2.3984-38.398 2.3984v2.3984s14.398 1.1992 38.398 3.6016c6 0 14.398 1.1992 21.602 1.1992 1.1992 3.6016 3.6016 8.3984 4.8008 14.398 4.7891 9.6094 7.1875 19.211 5.9883 30.012z"/>
</g>
</svg>
