<?xml version="1.0" encoding="UTF-8"?>
<svg width="1200pt" height="1200pt" version="1.1" viewBox="0 0 1200 1200" xmlns="http://www.w3.org/2000/svg">
 <path d="m88.559 546.48c-6.1133 5.8203-11.656 12.207-16.559 19.078-3.8398 5.0391-7.5586 10.199-12 15.359v0.003906c-6.5703 9.2188-12.43 18.926-17.52 29.039-6.9922 14.773-12.734 30.105-17.16 45.84-4.1992 13.199-7.9219 26.641-12 40.078-1.2109 5.7109 2.2305 11.375 7.8555 12.934 5.6211 1.5547 11.488-1.5352 13.383-7.0508 3.4805-12 6.8398-24.84 10.801-37.078 3.9609-12.238 7.3203-24 12-34.68v-0.003906c7.6641-16.461 17.164-31.996 28.32-46.32 1.9219-2.5195 3.8398-4.9219 5.8789-7.3203l5.1602-6.1211c3.6758-3.9102 7.6914-7.4844 12-10.68 21.625-17.262 45.234-31.887 70.32-43.559 10.992-4.0508 22.211-7.457 33.602-10.199 8.7617-2.1602 17.762-3.9609 26.641-5.2812 20.848-1.9414 41.848-1.6602 62.641 0.83984 12 1.1992 25.078 2.5195 37.559 3.9609l21.961 4.3203c8 1.6797 15.68 3.4805 23.039 5.3984 8.3984 2.1602 16.801 4.4414 25.078 6.8398 8.2812 2.3984 14.398 4.8008 21.602 7.4414 12 5.3984 24 10.559 36 16.559 13.922 6.9609 27.961 13.68 42.121 20.281 26.762 12 53.16 25.199 79.32 38.762 14.281 7.3203 28.441 14.398 42.961 21s27.48 12 41.398 17.398l44.641 16.68c8.0391 3 16.32 5.5195 24 8.3984 6.2383 2.1602 12.719 3.6016 19.078 5.2812 6.3594 1.6797 12 3.3594 18.602 4.6797l27.117 5.6406c3.1211 0.60156 6.3594 0.83984 9.4805 1.3203l16.559 2.1602c6.1211 0.83984 12 1.4414 18.121 1.9219l25.199 1.8008h25.441c13.68 0 27.48 0.60156 41.281 0s30.121-2.7617 45.121-5.0391c15-2.2812 28.922-4.4414 43.32-6.8398 14.398-2.3984 25.559-5.5195 38.16-8.6406 12.602-3.1211 24.719-6.1211 37.078-9.3594 5.0391-1.3203 10.078-2.8789 15-4.4414l-9.7188 14.281c-3.7188 5.5195-7.4414 11.16-11.039 16.801l-0.003906-0.003906c-1.6211 2.7227-3.1016 5.5234-4.4375 8.3984-2.3125 4.6172-3.9297 9.5508-4.8008 14.641-0.91406 3.7695-0.40234 7.7461 1.4414 11.16 1.9492 3.3008 5.125 5.6914 8.8359 6.6602 3.707 0.96484 7.6484 0.42578 10.961-1.5 3.2422-1.9414 5.6406-5.0234 6.7227-8.6406 0-1.8008 1.1992-3.6016 1.9219-5.2812h-0.003907c5.125-10.578 11.023-20.766 17.641-30.477 6.9609-10.559 13.559-21.48 21-31.68 3.3594-4.4414 6.4805-9.1211 9.8398-13.68s7.3203-10.199 10.922-15.48v-0.003906c2.1602-3.1133 3.8945-6.5039 5.1602-10.078 1.3438-4.0391 0.99609-8.457-0.97266-12.234s-5.3867-6.5938-9.4688-7.8047c-5.6328-1.6094-11.367-2.8516-17.16-3.7227-4.9219-1.0781-9.8398-2.2812-14.762-3.2383l-15.238-2.3984c-9.8477-2.2305-19.516-5.1992-28.922-8.8828-0.16016-2.5039-1.7031-4.707-4-5.7148-2.2969-1.0117-4.9648-0.65625-6.918 0.91797-2.2422-1.1172-4.6992-1.7305-7.1992-1.8008-1.1562-0.17188-2.3281-0.17188-3.4805 0-3.4883 0.95312-6.4609 3.2383-8.2812 6.3594-3.8359 6.5977-1.6406 15.059 4.9219 18.961 16.043 7.6523 32.859 13.566 50.16 17.637 7.3203 1.8008 14.762 3.3594 22.078 5.3984l4.6797 1.0781-2.5195 3.2383v0.007812c-3.5-1.7148-7.4961-2.1406-11.281-1.1992-3.3594 0.71875-6.7188 1.6797-9.9609 2.6406l0.003906-0.003907c-2.4141 0.77734-4.7422 1.7812-6.9609 3h-1.0781c-24 7.9219-48.719 13.32-73.199 19.32s-48 9-73.078 12.84c-13.559 1.5586-27.121 2.8789-40.801 3.3594h-26.16c-8.7617 0-21 0-31.441-0.71875l-18.48-1.3203c-4.4414 0-9.1211 0-13.441-0.83984l-27.719-3.6016c-12.961-2.6406-26.039-4.8008-38.879-8.1602l-15-3.9609-7.1992-1.8008-24-8.2812c-12-4.1992-24-9-36-13.559s-25.32-10.199-38.039-15.48-26.641-12-39.719-19.078c-13.086-7.0781-26.285-12.719-39.367-18.957-13.078-6.2383-28.441-13.922-42.719-20.641-14.281-6.7188-26.398-12-39.359-18.602-12.961-6.6016-28.078-13.559-42.359-19.801-3.9609-1.8008-8.0391-3.8398-12-5.2812l-12-4.1992c-7.3203-2.6406-14.641-4.6797-22.078-6.7188-7.4414-2.0391-13.559-3.4805-20.52-4.9219l-20.879-4.5586-0.003907 0.003906c-8.1211-1.7578-16.332-3.0391-24.602-3.8398l-24-2.1602c-15.121-1.3203-30.48-2.5195-45.719-2.5195h-12.719c-15.164 0.89062-30.199 3.3047-44.883 7.1992-7.5586 1.9219-15.121 4.1992-22.559 6.3594-13.625 4.2852-26.711 10.121-39 17.398-2.8789 1.6797-5.7617 3.1211-8.5195 4.9219l-12 8.1602c-6.1211 4.0781-12 8.5195-17.879 12.719-8.5234 6-16.922 12.48-24.363 18.961z"/>
</svg>
