<?xml version="1.0" encoding="UTF-8"?>
<svg width="1200pt" height="1200pt" version="1.1" viewBox="0 0 1200 1200" xmlns="http://www.w3.org/2000/svg">
 <path d="m1051.5 676.46c3.8516-2.1953 6.5273-5.543 8.4727-9.5898 0.97266-2.0273 1.7539-4.2344 2.3984-6.5508l0.875-3.5898 0.40625-1.8125 0.23828-0.86328 0.13281-0.43359 0.058594-0.22656 0.023437-0.10938 0.011719-0.023437v-0.023437c-0.15625-0.15625 0.34766 0.34766-0.34766-0.34766l-2.0742-2.0742-16.703-16.656 16.391 16.246c3.9609 3.9375 2.4727 2.4492 2.7461 2.7344v-0.035156l-0.011719-0.10938-0.023437-0.21484-0.070313-0.43359c3.3008-10.309 8.3633-19.141 14.16-27.156 5.8438-7.9453 12.109-15.527 19.234-21.758 5.0898-4.7773 10.344-9.4062 15.707-13.957l4.0312-3.3945c0.88672-0.74219 0.25391-0.16797 0.44531-0.30078l0.023438 0.25391c0.046875 0.19141 0.32422-0.30078 0.44531-0.49219 0.011719-0.035156 0.058594-0.046875 0.046875-0.12109l-1.6797-1.9062-3.3477-3.8047-7.2461-7.0547c-5.2695-5.0391-10.414-10.234-16.105-14.797l-14.664-12.445c-0.13281-0.16797-0.12109 0-0.12109 0.3125l-6 41.062c-2.5078 14.375-3.0977 29.293-5.3633 43.895-1.6914 12.996-5.1367 25.98-8.6406 38.555-0.76953 2.9766-3.3008 5.9023-4.3789 5.7969-1.043-0.10937-2.832-3.5156-3.2266-6.7305-1.2852-10.691-2.8086-21.938-2.6289-32.988 0.16797-11.449 0.49219-22.922 1.4648-34.344l3.8867-34.379 2.3281-24.145 5.1367-40.812c-0.26562-2.9141 1.5234-0.69531 2.7969 0.22656l3.9961 3.1914 8.0273 6.4336 16.246 12.984 20.051 15.84c6.4688 4.9062 12.215 10.645 18.359 15.926 2.9648 2.7617 6.1328 5.3047 9.3711 7.7773l1.2109 0.9375 1.9219 1.8125 3.8867 3.6836 7.8242 7.4141 7.8711 7.4648 3.9492 3.7578c0.57422 0.3125 0.37109 0.625-0.085937 0.9375l-0.98438 0.9375-1.957 1.8594-15.781 15.109-19.355 18.035c-3.457 3.3359-6.9258 6.6836-10.441 10.066-3.0977 3.7422-6.2383 7.5352-9.4336 11.398-6.4805 7.6211-13.453 15.215-22.188 22.246l-0.89844 0.16797-0.45703 0.085938-0.23828 0.046875h-0.058594l-0.023437 0.011719h-0.011719l1.3203 1.3203 7.0664 7.0547c18.852 18.781 37.738 37.609 56.676 56.473l-54.59-54.156-10.668-10.57-0.023438 0.023438-0.097656 0.035156-0.19141 0.097656-0.34766 0.17969-0.73047 0.33594c-0.48047 0.23828-1.0547 0.37109-1.7383 0.40625l-3.8516 0.49219c-2.5312 0.37109-5.1016 0.75781-7.7031 1.1523-5.0195 0.89062-10.059 1.9961-14.75 3.6289z"/>
 <path d="m1045.8 585.71c-17.125 6.2148-34.621 11.844-52.273 15.469-17.676 2.9648-35.438 5.7734-53.039 6.793-35.258 2.125-69.887 1.1758-103.77-0.023438-68.965-2.6523-138.07-9.4336-206.8-9.168-149.77 1.8359-299.54 4.7383-449.59 5.3281-33.215 0.15625-66.672-1.2344-98.988-3.1094-3.8164-0.070313-7.6914-0.89844-10.586-1.7539-2.8906-0.76953-4.8125-1.3906-4.7656-1.8359 0.10938-0.60156 8.4102-2.9883 16.441-3.6016 26.711-2.2578 54.73-4.5586 82.512-5.2578 57.625-1.6797 115.46-1.9336 173.16-3l242.51-5.2812c80.688-3.8984 162.56 1.6211 242.83 5.7344 67.879 3.2852 136.28 3.1523 222.36-0.29297z"/>
</svg>
