<?xml version="1.0" encoding="UTF-8"?>
<svg width="1200pt" height="1200pt" version="1.1" viewBox="0 0 1200 1200" xmlns="http://www.w3.org/2000/svg">
 <path d="m326 605.96c-24.684-4.1211-40.105 0.625-54.086 19.957h0.003906c-14.445 17.5-31.562 32.609-50.719 44.77-8.8789 4.9961-19.172 6.8828-29.242 5.3633-13.641-1.4609-15.773-12.406-10.324-23.207 7.8945-15.66 17.289-30.57 25.539-44.918l-0.003907-0.003907c-12.602 1.6133-25.293 2.4648-38 2.5508-19.172-0.60937-25.938 10.977-33.102 25.887-12.879 28.012-38.641 47.953-68.984 53.406-8.1445 1.1367-16.336-1.75-21.969-7.7383-2.2773-7.8555-0.85938-16.316 3.8594-22.996 10.422-13.652 21.586-26.723 33.438-39.152-9.5039 0.22656-16.398 0.44922-23.297 0.53516-5.0625 0.0625-11.312 1.8047-14.945-0.5-6.7266-5.0586-12.957-10.742-18.613-16.98 6.8008-1.7812 13.523-4.0039 20.426-5.2109 5.9453-1.043 12.094-0.93359 21.582-1.5625-10.816-8.0781-20.848-17.148-29.969-27.102-3.4688-7.6172-5.3984-15.844-5.6797-24.207 7.7969-1.1172 17.102-5.5312 23.121-2.7695 24.359 10.707 47.906 23.176 70.453 37.305 18.27 11.867 37.52 5.7031 56.164 8.4453v0.003906c8.0273 0.089844 16.039-0.66406 23.906-2.2461-6.0742-5.1641-9.5273-8.3047-13.195-11.168v0.003907c-8.3594-4.9062-15.969-10.98-22.602-18.047-5.9258-8.5781-12.98-21.531-10.387-29.652 4.1484-12.973 17.934-6.4453 28.469-4.3945 30.602 5.8633 58.297 21.973 78.52 45.68 4.4844 5.707 10.453 10.066 17.25 12.602 6.7969 2.5391 14.16 3.1523 21.285 1.7812 8.1992-0.91797 16.398-1.8086 28.961-3.1953-12.969-11.062-22.387-18.906-31.562-27.02-4.7109-3.2461-8.7031-7.4297-11.719-12.293-2.7734-8.0508-4.8594-16.32-6.2305-24.723 10.168-1.6641 21.973-7.5 30.215-4.2617 32.871 12.918 65.891 26.469 91.914 51.871 17.902 17.473 40.039 15.277 62.488 14.727 85.922-2.1094 171.86-3.707 257.8-4.7891 48.934-0.59766 97.883 0.51172 146.82 0.39844 44.293-0.10156 88.586-1.2422 132.88-1.0781 22.637 0.085938 45.262 2.2148 67.906 3.0273 6.3672-0.11328 12.723-0.60156 19.035-1.4609l0.58594-5.0781c-27.168-12.043-54.48-23.773-81.359-36.43-4.707-2.2148-11.457-9.4258-10.594-12.402 2.7852-9.6523 9.9336-7.3594 17.832-3.7812 38.188 17.297 76.586 34.137 115.19 50.512 7.6719 3.2461 34.586 11.902 39.391 15.297-3.75 4.418-84.773 51.777-114.04 82.277l-0.003906-0.003906c-2.6211 3.9062-6.75 6.543-11.395 7.2773-4.6484 0.73047-9.3906-0.50781-13.082-3.418-3.6953-2.9102-6.0117-7.2305-6.3867-11.918-0.55078-6.1914 1.7539-12.293 6.2656-16.57 18.723-14.715 38.445-28.148 61.176-44.461-8.2695-2.3203-16.73-3.8984-25.281-4.7148-59.574 0.24609-119.15 1.6055-178.72 1.4922-51.07-0.09375-102.14-2.5078-153.2-2.3594-46.734 0.13281-93.48 1.8594-140.19 3.7266-54.418 2.1719-108.8 5.2031-163.19 8.082-3.9023-0.11719-7.7188 1.1719-10.754 3.6328-13.605 16.438-33.504 20.441-51.871 27.633-10.047 3.9336-19.723 8.8086-29.746 12.805-5.4414 3.0703-11.551 4.7695-17.797 4.957-7.2539-1.1211-17.344-4.4297-19.852-9.7812-2.3633-5.0352 2.6523-14.406 6.0977-20.992 2.4219-4.6289 7.6523-7.7891 13.52-13.418zm-27.062-83.758c4.0156 27.434 70.391 71.613 99.562 53.047-16.727-21.027-74.695-51.918-99.559-53.047zm-126.41 10.496c9.8984 30.805 60.555 58.941 87.941 49.012v0.003906c-21.078-28.023-53.02-45.828-87.941-49.012zm-45.738 83.207c-32.746 10.367-66.168 42.695-65.77 62.543 26.352-0.34375 60.961-32.609 65.77-62.543zm70.941 45.715c30.957-3.3086 59.344-27.742 62.051-52.504-27.324-0.10938-62.488 28.957-62.047 52.508zm-152.19-107.57c7.4102 24.434 49.902 44.27 69.957 32.543-21.473-15.523-42.035-30.219-69.957-32.543zm280.36 82.355c24.188-9.8359 44.793-18.219 69.254-28.168-12.98-4.7695-27.27-4.5273-40.078 0.68359-12.809 5.207-23.211 15.008-29.176 27.484z"/>
</svg>
