<?xml version="1.0" encoding="UTF-8"?>
<svg width="1200pt" height="1200pt" version="1.1" viewBox="0 0 1200 1200" xmlns="http://www.w3.org/2000/svg">
 <path d="m550 1014.5c3.1875 13.461-1.2539 26.582 1.7578 40.02 2.5312 11.289-11.781 22.602-29.406 24.219l-0.003906-0.003906c-38.75 2.9688-77.723 0.078125-115.61-8.5781-10.82-2.2852-13.32-10.223-15.656-18.074h-0.003906c-4.4922-18.582-4.3594-37.984 0.38281-56.504 12.004-61.402 24.605-122.69 36.359-184.13h0.003907c10.195-53.207 25.293-105.36 45.098-155.78 6.1875-15.934 11.457-32.211 15.781-48.746 13.637-51.367 36.77-99.148 56.207-148.35 8.7891-22.246 22.102-41.852 31.949-63.34 7.6719-16.742 7.3438-17.344-10.66-24.059-12.457-4.6484-25.344-8.1367-37.875-12.605-23.258-8.2969-23.922-12.574-9.125-31.258 13.273-16.754 32.754-25.5 47.777-40.016l0.003907 0.003906c27.434-26.262 58.09-48.93 91.234-67.465 13.496-8.9258 25.496-19.934 35.547-32.613 21.461-22.887 46.094-42.578 73.141-58.48 11.469-6.9805 23.043-13.859 33.125-3.1875v0.003907c5.4844 4.6758 9.3398 10.973 11.02 17.98 1.6836 7.0078 1.0977 14.367-1.668 21.023-14.09 33.301-23.637 68.348-28.383 104.2-5.3633 34.582-13.91 68.848-10.781 104.51 1.3984 15.949-6.0469 31.477-4.4805 48.02 1.0938 11.57-8.4414 13.312-17.734 12.848-13.266-0.66406-26.605-0.89453-39.754-2.582h0.003906c-4.6758-0.98047-9.5469-0.16797-13.648 2.2773-4.0977 2.4453-7.1328 6.3438-8.4922 10.918-11.148 26.238-24.18 51.867-32.941 78.883-13.191 40.672-27.961 80.898-39.879 121.89-22.441 72.57-38.625 146.93-48.367 222.27-3.6016 32.055-8.6914 63.945-13.391 95.867h0.003906c-1.8633 16.883-2.3789 33.887-1.5352 50.852zm4.0742-526.85c-18.844 28.848-18.949 28.93 0.30859 53.73 6.3984 8.2422 14.016 15.57 20.082 24.023 3.4297 4.7773 10.535 9.2031 5.125 18.43-20.469-11.633-26.898-36.23-47.555-51.059-14.711 45.273 25.387 69.254 39.566 107.89-29.82-16.566-34.609-44.652-50.008-65.227-10.707 17.547-10.637 17.516-5.6602 28.434 7.168 14.492 15.918 28.141 26.086 40.711 2.5234 3.3359 9.8438 7.8945 1.25 14.578-15.277-11.18-21.871-30.156-35.535-43.203-14.855 18.129-18.148 34.047 0.078125 51.473h-0.003906c10.266 11.215 19.555 23.289 27.762 36.086 3.6094 4.8984 10.293 8.6719 6.6523 19.129-23.688-16.969-36.039-42.41-53.84-63.102v0.003906c-5.4414 4.9883-8.5195 12.047-8.4727 19.426 0.050782 7.3828 3.2188 14.402 8.7305 19.316 15.68 21.492 30.059 43.898 43.066 67.105 2.0781 3.332 3.0586 6.9219-4.1445 9.4766-21.434-21.375-30.25-52.945-52.891-76.617-16.285 25.598 2.2969 42.207 10.93 60.781 8.9023 19.148 26.98 32.867 36.141 59.266-32.898-21.438-39.367-56.105-61.152-77.414-15.047 24.145-6.4492 42.828 9.6953 61.234 10.113 12.609 19.371 25.879 27.711 39.727 4.7344 7.1445 13.766 12.148 14.539 28.391-30.289-24.426-42.609-56.039-63.641-81.312-8.4297 18.773-8.6328 18.891-2.6211 29.465 8.4492 14.863 16.57 29.98 26.043 44.184 13.215 22.621 28.723 43.82 46.285 63.262 2.3867-5.8984 4.1406-12.035 5.2383-18.305 4.1133-48.195 12.289-95.957 24.441-142.78 8.4961-46.652 19.387-92.836 32.621-138.37 16.152-49.762 34.18-98.75 54.074-146.97 3.4453-8.4102 6.8047-15.652-1.0547-23.262-16.836-17.824-30.207-38.633-39.418-61.355-18.23 32.332-35.586 60.172-40.988 93.441zm168.45-164.73c-27.59-24.961-42.496-56.91-61.738-86.125-34.191 19.664-60.719 48.688-92.945 70.105-7.4492 4.9492-4.9648 11.949-1.75 17.738l0.003906-0.003907c7.3164 14.418 16.539 27.781 27.422 39.738 3.9453 4.0234 8.7812 6.7031 9.1875 13.324 1.8633 30.281 19.895 50.887 40.68 70.887 17.465-26.895 16.867-38.602-2.25-65.215-13.297-18.512-26.84-36.844-39.98-55.461-4.4258-6.2695-10.27-12.797-5.1328-21.469l0.003907 0.003906c4.2734 1.0117 7.8398 3.9492 9.6523 7.9492 16.844 24.105 33.609 48.266 50.508 72.336 3.0391 4.3281 7.2266 13.473 11.668 9.0664 15.73-15.609 30.684-0.64062 45.715-0.69922 21.734-0.089844 22.879 0.78125 22.559-21.281v-0.003906c-0.99219-51.309 4.8242-102.53 17.297-152.31 7.5469-23.77 12.906-48.18 16.02-72.922-26.297 13.293-49.625 31.777-68.586 54.332-3.4727 3.5156-4.0234 8.9766-1.3203 13.113 4.8633 8.6406 7.8047 18.98 18.922 22.352 6.1641-10.031-7.8789-20.648 0.77344-31.941 13.191 27.516 13.848 32.117 8.2578 58.523h-0.003906c-15.023-8.2539-27.129-20.949-34.668-36.344-2.9375-4.7734-4.9609-11.164-12.438-7.1602-5.4453 2.5938-7.9453 8.9688-5.7227 14.574 1.4297 4.5273 3.6367 8.7734 6.5234 12.543 14.176 17.758 23.07 39.355 40.207 54.961 4.3789 3.9844 7.4141 8.7422 1.1367 19.387zm-292.5 552.99c-9.1523 24.359-8.332 51.344 2.2891 75.098 17.508 44.172 52.402 74.574 79.66 112.44 2.2305-14.832 3.4375-29.801 3.6094-44.797 1.3867-15.105-3.3711-30.133-13.191-41.695-13.41-17.109-24.883-35.723-37.652-53.355-10.223-16.836-21.836-32.785-34.715-47.688zm8.4102-51.148c-6.4336 18.648-2.957 39.281 9.2344 54.789 18.219 26.461 36.02 53.211 53.773 79.984 3.2852 4.9531 4.8242 11.332 12.336 13.062 1.5586-8.7383 2.7695-16.109 4.207-23.438 0.77344-3.082 0.56641-6.332-0.59375-9.293-1.1641-2.9609-3.2188-5.4844-5.8867-7.2188-27.566-24.629-48.469-55.82-60.766-90.68-2.2422-6.043-2.6914-12.926-12.305-17.207zm54.043 243.1c-18.684-41.242-53.934-82.52-73.355-89.738 22.641 32.918 41.969 66.305 73.352 89.738zm-75.234-69.773h-0.003906c-3.6094 2.1016-6.2109 5.5703-7.2188 9.625-1.0078 4.0508-0.33203 8.3359 1.875 11.883 11.551 16.973 25.066 32.523 40.266 46.328 2.7539 2.7305 7.0156 3.2188 10.316 1.1836 4.0664-2.8477 2.5898-6.9336 0.32422-9.9141-15.078-19.82-30.383-39.465-45.562-59.105zm135.31-674.58c-9.8242 4.1602-19.957 7.8789-19.293 16.543 0.85938 11.234 12.781 11.52 21.758 12.488 4.5547 0.49219 10.02 5.1602 14.848-1.6406-5.4492-8.6172-10.848-17.16-17.312-27.391zm-121.66 737.98c-9.418-12.297-13.984-20.41-24.301-24.691-3.332 16.707 3.9336 22.773 24.301 24.691z"/>
 <path d="m591.45 427.31c10.145 15.723 21.707 30.484 34.539 44.105 1.9922 2.0273 1.9922 5.2773 0 7.3047-1.9883 2.0273-5.2383 2.0859-7.3008 0.12891-13.598-14.797-29.176-28.562-27.238-51.539z"/>
 <path d="m553.51 488.21c2.7812-0.082031 6.9336-1.3906 8.1367-0.054687 13.906 14.645 24.348 32.227 30.555 51.445-20.98-11.383-28.152-32.711-38.113-51.996z"/>
 <path d="m573.47 458.21 33.859 44.656c-25.711-8.3086-32.004-16.75-33.859-44.656z"/>
 <path d="m718.54 368.77c-23.156-5.582-68.414-64.402-81.434-98.262 3.6055 1.2344-1.5273-0.48438 1.957-2.0234 0.78906-0.34766 2.3594-0.5 2.6953-0.066407 25.648 33.406 51.242 66.859 76.781 100.35z"/>
 <path d="m432.52 911.01c29.012 35.832 48.242 70.309 73.539 106.93-24.652-10.488-64.176-68.816-73.539-106.93z"/>
</svg>
