<?xml version="1.0" encoding="UTF-8"?>
<svg width="1200pt" height="1200pt" version="1.1" viewBox="0 0 1200 1200" xmlns="http://www.w3.org/2000/svg">
 <path d="m1067.3 552.73c20.004 20.004 39.996 39.996 60 60v-25.453c-23.363 24.133-43.055 54.73-74.352 69.18-21.059 9.7188-2.7617 40.754 18.168 31.094 34.355-15.863 56.039-48.371 81.648-74.82 6.8164-7.043 7.0195-18.434 0-25.453l-60-60c-16.441-16.438-41.895 9.0156-25.465 25.453z"/>
 <path d="m36 618c362.71 0.75781 730.04 48.574 1092 12 22.859-2.3047 23.102-38.328 0-36-361.96 36.574-729.29-11.242-1092-12-23.219-0.046875-23.219 35.953 0 36z"/>
</svg>
