<?xml version="1.0" encoding="UTF-8"?>
<svg width="1200pt" height="1200pt" version="1.1" viewBox="0 0 1200 1200" xmlns="http://www.w3.org/2000/svg">
 <path d="m1072.8 589.2c-62.398 57.602-126 112.8-190.8 166.8-19.199 15.602-45.602 18-63.602 0-15.602-15.602-19.199-48 0-63.602 26.398-21.602 52.801-43.199 78-66-104.4 14.398-210 27.602-315.6 34.801-140.4 10.801-282 12-422.4 7.1992-57.602-1.1992-57.602-91.199 0-90 139.2 4.8008 277.2 3.6016 416.4-6 76.801-6 153.6-13.199 230.4-24-26.398-10.801-51.602-22.801-76.801-33.602-22.801-9.6016-27.602-42-15.602-61.199 13.199-22.801 39.602-26.398 61.199-15.602 84 37.199 174 81.602 267.6 74.398 38.406-3.5938 58.805 50.406 31.207 76.805z"/>
</svg>
