<?xml version="1.0" encoding="UTF-8"?>
<svg width="1200pt" height="1200pt" version="1.1" viewBox="0 0 1200 1200" xmlns="http://www.w3.org/2000/svg">
 <g transform="rotate(90 600 600)">
  <path d="m585 175.18c-14.324 0-26.059 0.14844-37.789-0.03125-20.727-0.32031-26.527-9.8867-17.809-27.801 17.629-36.211 34.59-72.75 52.352-108.89 5.5312-11.258 12.746-21.684 18.562-31.441v-0.003906c6.8477-0.5 13.645 1.4961 19.133 5.6211 5.4883 4.1289 9.2969 10.102 10.719 16.82 5.5273 16.824 11.281 33.656 18.387 49.852 8.2422 18.793 18.246 36.805 27.109 55.336 4.0859 8.543 7.2812 17.516 11.324 27.371h-0.003906c-12.527 7.332-27.105 10.375-41.523 8.6719-21.641-3.2617-25.434 0.76562-25.562 24.211-0.47656 85.793-0.39453 171.59-0.53906 257.39-0.1875 112.12-0.39062 224.25-0.61328 336.38-0.066407 27.609 0.23437 55.254-1.0703 82.812-0.87891 7.3438 0.35156 14.781 3.5391 21.453 3.1914 6.668 8.2148 12.293 14.48 16.215 9.8047 6.5664 18.988 14.051 28.656 20.832 12.824 9.2852 20.363 24.203 20.234 40.039-0.12891 15.836-7.9141 30.629-20.891 39.699-2.4375 1.8906-13.863-7.3047-21.445-11.516-7.582-4.6055-15.703-8.2578-24.176-10.875 7.8125 13.953 20.441 24.582 35.52 29.902 12.363 6.7188 21.965 17.57 27.129 30.656 5.168 13.086 5.5625 27.574 1.125 40.922-1.0156 4.4688-4.1289 8.1641-8.3633 9.918-4.2305 1.7539-9.0469 1.3477-12.922-1.0938-7.5703-4.6289-16.074-7.5039-24.895-8.4258 6.6875 4.3945 13.117 9.2539 20.105 13.102 11.164 5.1758 20.609 13.438 27.223 23.816 6.6133 10.375 10.117 22.426 10.094 34.73 0.54687 21.699-9.1445 31.633-30.059 25.543-4.8438-1.0117-9.3398-3.2695-13.039-6.5586-17.801-19.922-41.449-17.141-64.027-16.215-7.543 1.9805-14.492 5.7617-20.246 11.02-6.7148 5.7148-13.871 10.879-21.41 15.449-16.266 7.2539-27.82 0.64453-29.359-16.711v0.003906c-0.84766-12.793-0.67969-25.629 0.50391-38.395 1.0586-14.918 12.605-21.312 24.301-27.152 15.715-7.8477 32.305-14.5 40.422-33.527-5.1133 3.2305-10.301 6.3477-15.32 9.7188-6.8477 5.5508-14.164 10.496-21.863 14.789-21.781 9.5977-30.152 3.0117-32.945-19.984v-0.003907c-3.1055-14.102-0.77734-28.855 6.5195-41.32 7.293-12.461 19.016-21.715 32.832-25.914 7.3047-2.8945 14.32-6.5391 21.387-10.004 5.3828-1.8477 9.8125-5.7539 12.312-10.867 2.5039-5.1094 2.8711-11.004 1.0273-16.387-11.754 1.5977-22.453 7.6367-29.887 16.883-4.4609 5.1562-9.6172 9.6602-15.328 13.387-3.5039 2.6094-7.8359 3.8711-12.195 3.5469-4.3594-0.32422-8.457-2.207-11.539-5.3086-3.082-3.0977-4.9453-7.207-5.2461-11.566-8.0078-32.609-0.57812-51.828 27.223-70.414 49.18-32.883 49.32-32.879 49.941-92.277 1.7422-166.5 3.3672-332.99 4.8711-499.49 0.35547-46.168-0.98828-92.352-1.9453-138.52h-0.003906c-0.97656-5.3281-2.668-10.5-5.0156-15.379zm-31.805 880.31c14.727-4.7266 26.812-15.375 33.359-29.391-20.312 3.8711-30.398 12.836-33.359 29.391zm31.121 68.305c-14.055 1.8516-31.117 0.375-28.438 27.543 11.844-11.473 20.141-19.508 28.438-27.543zm60.383-74.559 4.1602-5.2383c-9.3828-5.4102-18.766-10.816-28.145-16.227l-2.6719 4.5195c8.8867 5.6484 17.77 11.297 26.656 16.941zm-14.84-110.22-2.1484 3.9336 11.027 5.8164 1.9414-3.5898c-3.6055-2.0547-7.2148-4.1094-10.82-6.1602z"/>
 </g>
</svg>
