<?xml version="1.0" encoding="UTF-8"?>
<svg width="1200pt" height="1200pt" version="1.1" viewBox="0 0 1200 1200" xmlns="http://www.w3.org/2000/svg">
 <path d="m1086.2 602.25c-0.19922-0.97266-0.51172-1.9141-0.9375-2.8125-0.45703-0.82422-1.0234-1.582-1.6875-2.25-1.0469-1.2109-2.2422-2.2812-3.5625-3.1875-1.5547-1.1094-3.1836-2.1094-4.875-3l-9.75-6.5625-5.0625-3.1875-5.25-4.6875c-6.9375-5.8125-14.25-11.25-21.562-16.5s-12.188-8.0625-18.75-12l-18.75-14.812c-13.688-10.5-27.562-21-42.188-30.375l-12.562-7.5c-3.75-2.0625-7.5-3.75-11.438-5.625l-0.75-2.25c-0.41797-0.17578-0.89453-0.17578-1.3125 0-0.78516 0.10938-1.4531 0.625-1.7617 1.3555-0.30859 0.73047-0.20703 1.5703 0.26172 2.207l1.5 1.3125c0.35547 0.47266 0.66797 0.97266 0.9375 1.5-0.67188 0.93359-1.0625 2.0391-1.125 3.1875 0.09375 2.1328 0.88281 4.1719 2.25 5.8125 0.83203 0.85938 1.707 1.6719 2.625 2.4375 0.32422 1.4688 0.76562 2.9102 1.3125 4.3125l1.6875 3.1875 1.875 2.8125 2.25 2.8125 5.0625 5.25c3.375 3.1875 6.9375 6 10.5 8.8125l10.875 7.5c7.3125 4.875 14.812 9.1875 22.312 13.875 4.5 2.8125 9 5.625 13.312 8.625l5.25 3.9375 17.438 13.125 17.625 13.312 8.0625 7.125 3.1875 2.625h-96.938c-13.125 0-26.25-1.125-39.375-1.125h-6.75-46.688l-45.562 1.6875h-57.938c-35.062 0-70.125-1.6875-105-1.125h-51.188-51.938-52.688-52.688-51c-8.25 0-16.5 0-24.75-1.3125s-17.25-0.75-25.688-0.75h-18.75-7.5c0.19141-1.1172 0.19141-2.2578 0-3.375-0.66016-1.2852-1.4766-2.4844-2.4375-3.5625l-3.1875-3-3-2.25-2.8125-3-8.625-9.1875c-5.25-6-10.688-11.812-16.312-17.438l-1.5-1.6875-8.25-9.5625c-2.8125-3.1875-5.8125-6.1875-9-9.1875-2.5547-2.582-5.2461-5.0234-8.0625-7.3125l-6.1875-5.4375h-1.6875c0.98047 0.23828 1.9766-0.33984 2.25-1.3125 0.24219-0.51953 0.23047-1.1172-0.023438-1.6289-0.25391-0.51172-0.73047-0.87891-1.2891-0.99609h-1.125c-1.6445-0.73828-3.3359-1.3633-5.0625-1.875l-6.5625-1.5c-4.2734-0.83984-8.5938-1.4023-12.938-1.6875-8.25-0.9375-16.688-1.5-24.938-1.6875s-17.25 0-25.875 0h-14.062l-18.75-0.9375h-6.75c-1.6133-0.28125-3.2617-0.28125-4.875 0-1.9023 0.71094-3.6758 1.7227-5.25 3-0.5625 0.70312-1.0664 1.457-1.5 2.25-0.84375 1.7812-0.84375 3.8438 0 5.625 0.24609 0.90234 0.69531 1.7344 1.3125 2.4375 0.26562 1.2148 0.77734 2.3633 1.5 3.375 0.28906 1.1523 0.66797 2.2812 1.125 3.375 0.42188 1.1602 0.92188 2.2852 1.5 3.375 0.44922 1.0586 1.0156 2.0664 1.6875 3l1.125 2.0625 3.9375 6.375c4.6875 7.5 9.75 14.812 15 21.938 2.625 3.375 5.25 6.9375 8.0625 10.312l8.625 10.5 8.25 9.375c1.875 2.0625 3.75 3.9375 5.4375 6 0.39453 1.2383 1.0312 2.3867 1.875 3.375 0.29688 0.84766 0.67188 1.6641 1.125 2.4375h-0.9375c-3.3555 2.5469-6.5508 5.3008-9.5625 8.25-4.8516 4.7266-9.4219 9.7383-13.688 15-4.875 6.125-9.5625 12.375-14.062 18.75-3.75 5.4375-7.3125 11.25-11.25 16.688l-5.8125 7.5c-0.98047 1.2383-1.8594 2.5547-2.625 3.9375-1.7695 0.27734-3.4805 0.84766-5.0625 1.6875-4.1797 2.6836-6.1523 7.7617-4.875 12.562 1.0586 4.7344 5.2734 8.0898 10.125 8.0625h26.812 24.375c17.062 0 34.312 0 51.375 1.125h8.4375c0.55859 0.10547 1.1289 0.10547 1.6875 0 1.2578 0.94531 2.7461 1.5273 4.3125 1.6875 1.2422 0.17578 2.5078 0.17578 3.75 0l2.8125-1.3125h1.3125l3.1875-2.625c1.5898-1.3398 3.0938-2.7812 4.5-4.3125 2.7695-2.7422 5.3945-5.6211 7.875-8.625 5.4375-6.375 10.875-12.75 16.125-18.75 5.8672-6.8984 11.375-14.094 16.5-21.562 1.875-2.625 3.5625-5.4375 5.25-8.25s5.4375-6 8.4375-8.8125l2.25-2.25h9.1875 32.438 18.75l25.688 0.9375 24.938 1.6875h26.062 75.188 50.25c16.688 0 34.5-1.125 51.562-1.3125l50.625-1.125c17.625 0 35.062-1.5 52.5-2.4375s34.875-1.875 52.312-2.625l50.25-1.875c17.438-0.9375 34.875-1.6875 52.312-2.0625s35.812 0 53.625 0h50.625c13.875 0 27.75 0 41.438-1.6875 7.3125 0 14.438 0 21.562-1.875l-8.8125 6-20.625 12.938c-14.438 10.5-28.312 21.562-42.188 32.812-9.375 7.6875-18.75 15.562-27.375 23.625l-15.562 12.938-6.375 5.25c-2.9922 2.3867-4.832 5.9297-5.0625 9.75 0.035156 1.7656 0.48438 3.5 1.3125 5.0625 0.82031 1.2305 1.9102 2.2539 3.1875 3 2 1.4531 4.5469 1.9375 6.9375 1.3125 1.4883-0.52344 2.8789-1.2812 4.125-2.25l2.625-2.25 4.3125-3.1875h1.125l3.375-1.6875 4.5-3.1875c3-2.0625 5.8125-4.5 8.8125-6.9375 7.125-5.4375 14.062-11.25 21-16.875l7.5-6 30-22.688c11.438-8.8125 22.875-17.625 34.125-26.812l6.375-5.8125c1.832-1.3359 3.5859-2.7734 5.25-4.3125l1.6875-2.0625c2.7578-2.6953 5.3242-5.5781 7.6875-8.625l1.3125-1.875c1.8047-0.57422 3.293-1.8633 4.125-3.5625 2.4414-3.1328 2.7383-7.4375 0.75-10.875zm-914.25-26.062-7.3125-9.5625c-5.625-6.9375-11.25-14.062-16.5-21.375-3-3.75-6.1875-7.3125-9.375-10.875h3l12.75-0.9375h24.75c17.215 1.2891 34.527 0.027344 51.375-3.75l1.125 2.0625 3.9375 5.4375 4.5 5.625c5.4375 6.75 11.25 13.125 17.25 18.75s11.438 12 17.438 17.812l18.75 17.25 3 2.4375h-11.812-25.312-26.438c-8.0625 0-16.312-1.3125-24.375-2.25l-11.062-1.125h-9.9375l-6.5625-7.3125c-3.5625-5.25-6.375-8.8125-9.1875-12.188zm54.562 113.44h-14.625l-13.875-1.5c-17.062-1.5-33.938-2.0625-50.812-4.125 0.84766-1.6172 1.7852-3.1797 2.8125-4.6875 4.3125-7.125 8.8125-14.25 13.5-21.188l13.875-20.625c2.4375-3.5625 4.875-6.9375 7.125-10.688 0 0 0.9375-1.6875 1.5-2.625h105.56c-3.5625 3.9375-7.125 8.0625-10.688 11.812-11.812 12.562-23.062 25.312-33.938 38.438l-5.4375 7.3125-2.4375 2.25-1.3125 1.6875c-0.68359-0.085938-1.3789-0.085938-2.0625 0-3.2305 0.88281-6.3203 2.207-9.1875 3.9375z"/>
</svg>
