<?xml version="1.0" encoding="UTF-8"?>
<svg width="1200pt" height="1200pt" version="1.1" viewBox="0 0 1200 1200" xmlns="http://www.w3.org/2000/svg">
 <path d="m1075.6 536.88c-8.8789-12.602-15-20.398-20.039-28.801-3.4727-3.7891-5.0625-8.9414-4.332-14.031 0.73047-5.0938 3.7109-9.5859 8.1133-12.246 4.4023-2.6602 9.7656-3.2031 14.609-1.4844 4.8477 1.7188 8.668 5.5234 10.41 10.363 8.5195 13.68 15.961 28.078 24 41.762 8.0391 13.68 16.801 25.68 25.559 38.281 10.922 15.719 5.8789 28.078-13.32 30.961-5.2812 0.71875-10.68 0-16.078 0.71875-19.922 1.3203-40.078 1.8008-57.359 14.039-1.3164 0.80859-2.7266 1.4531-4.1992 1.918-3.7891 1.6797-8.0508 1.9609-12.027 0.79688-3.9766-1.1641-7.4102-3.6992-9.6953-7.1562-2.5859-3.5078-3.6367-7.918-2.9141-12.215s3.1602-8.1172 6.7539-10.586c10.922-7.9219 23.281-13.801 39-22.922-13.559-3.1211-24-6.1211-34.922-7.8008l0.003906 0.003907c-45.941-5.1562-92.445-1.3242-136.92 11.281-75.598 18.238-148.2 46.797-220.2 73.559-66.961 24-133.56 50.641-204 64.801-82.828 18.812-169.05 16.586-250.8-6.4805-44.773-12.605-86.176-35.027-121.2-65.641-12.293-11.531-23.391-24.277-33.121-38.039-2.4102-3.4844-3.2891-7.8086-2.4258-11.957 0.85938-4.1523 3.3867-7.7656 6.9883-10.004 3.4102-2.6133 7.6953-3.8086 11.965-3.3398 4.2695 0.47266 8.1914 2.5703 10.953 5.8594 0.61328 0.46875 1.1406 1.0352 1.5625 1.6797 42.238 55.801 104.04 79.32 166.92 100.8 70.801 24 142.32 16.801 214.32 6 99.598-15 192.71-51 285.6-88.199 39.961-15.961 80.039-31.559 120.6-45.719 61.676-21.602 124.8-32.523 196.2-16.203z"/>
</svg>
