<?xml version="1.0" encoding="UTF-8"?>
<svg width="1200pt" height="1200pt" version="1.1" viewBox="0 0 1200 1200" xmlns="http://www.w3.org/2000/svg">
 <path d="m1068 675c3.1328-50.566 6-101.18 14.352-151.22-10.031 2.6523-20.051 5.293-30.086 7.9453 27.301 21.574 53.23 44.566 78 69v-25.453c-33.637 26.617-62.797 56.797-93 87-16.43 16.43 9.0234 41.879 25.453 25.453 30.203-30.203 59.363-60.383 93-87 7.6797-6.0703 6.3711-19.164 0-25.453-24.77-24.445-50.688-47.426-78-69-9.3477-7.3906-27.602-6.9258-30.086 7.9453-8.8906 53.242-12.309 106.98-15.633 160.79-1.4414 23.195 34.57 23.062 36 0z"/>
 <path d="m66 615c168.05-0.30078 335.98-6.7422 504-8.6523 158.44-1.7773 319.29 25.418 477 5.6523 22.727-2.8438 22.992-38.879 0-36-150.39 18.84-303.07-6.6367-454.03-5.832-175.69 0.92578-351.27 8.5195-526.97 8.832-23.219 0.046875-23.219 36.047 0 36z"/>
</svg>
