<?xml version="1.0" encoding="UTF-8"?>
<svg width="1200pt" height="1200pt" version="1.1" viewBox="0 0 1200 1200" xmlns="http://www.w3.org/2000/svg">
 <path d="m98.641 600-12-16.078c-20.762-29.402-13.32-57.363 21.359-70.441 37.031-13.07 76.633-17.184 115.56-12 53.438 6.9727 105.82 20.43 156 40.078 74.281 27 147.96 55.801 222.48 82.078v0.003906c78.918 29.012 161.53 46.75 245.4 52.68 57.055 3.9805 114.35-2.9023 168.84-20.281 4.4414-1.4414 9-2.3984 19.441-5.1602-13.078 17.281-23.16 29.641-32.16 42.719s-22.441 22.922-26.039 43.199l-0.003907 0.003906c5.0781-1.3711 9.957-3.3867 14.52-6 21.359-17.52 42.52-35.238 63.48-53.16 19.922-16.801 39.84-33.719 60-50.879 6.0195-5.5156 11.598-11.496 16.68-17.883 6.6016-7.6797 12-16.199 6.3594-26.398-2.7852-4.6602-7.1641-8.1523-12.328-9.8281-5.1641-1.6758-10.758-1.4258-15.75 0.70703-35.039 14.641-68.641 2.6406-102.48 1.1992-21.121-0.83984-42.238-2.7617-63.359-2.7617v0.003906c-6.082 0.45312-11.574 3.8008-14.762 9-2.7617 9.2383 5.6406 11.039 13.199 13.32 21.48 6.2383 42.84 13.32 69.961 21.961-13.801 4.4414-22.559 7.6797-31.68 10.199-69.961 18.84-140.52 15.238-210.96 2.8789-83.977-16.559-166.18-41.066-245.52-73.199-74.52-27.961-148.44-58.922-226.08-78.48-51.938-14.828-106.6-17.457-159.72-7.6797-26.93 4.1797-51.238 18.523-67.918 40.078-10.09 15.211-13.367 33.941-9.0352 51.672 4.3281 17.73 15.871 32.844 31.836 41.688z"/>
</svg>
