<?xml version="1.0" encoding="UTF-8"?>
<svg width="1200pt" height="1200pt" version="1.1" viewBox="0 0 1200 1200" xmlns="http://www.w3.org/2000/svg">
 <path d="m732.83 588.94 206.04-0.89844c26.207 5.9883 42.684 11.891-1.9219 17.375l-448.14 1.2344c-27.215 3.2773-54.59 2.7969-82.055 0.22656l-7.2344 0.14453c-21.504 1.5-49.871 4.0195-53.34-3.9961-3.3945-7.8242 24.395-11.258 52.859-11.23 82.152 0.085937 164.38 0.71875 246.5-0.25391 29.184-0.35937 60.098 2.207 87.289-2.6016z"/>
 <path d="m732.83 588.94c-50.797 7.7656-108.12 6.2383-163.4 6.9102-55.754 0.70703-111.73 0.10938-167.59 0.34766-11.375 0.035157-24.625 1.8242-22.98 4.8945 1.1289 2.1602 13.344 3.9375 20.652 5.9023-80.93 6.1094-163.34 5.7344-246.05 3.3359-5.7109-0.17969-12.551-1.8711-15.539-3.3242-6.8398-3.3008 2.8672-5.832 12.527-6.7695 24.348-2.375 49.441-5.1602 74.941-5.7109 168.81-3.6445 337.68-7.3867 507.44-5.5859z"/>
 <path d="m936.96 605.41c12.445-5.7109 9.3359-11.531 1.9219-17.375 49.426 9.1914 49.195 11.234-1.9219 17.375z"/>
 <path d="m406.75 606.86c27.348-0.070312 54.684-0.14453 82.055-0.22656-27.215 3.418-54.566 3.707-82.055 0.22656z"/>
 <path d="m964.55 635.11-0.89844-105.13c5.9883-13.367 11.891-21.781 17.375 0.98438 0.28906 52.598 0.57422 105.2 0.57422 157.81-3.4805-1.4766-6.9492-2.9531-10.344-4.3672l49.766-50.438c7.5-12.133 17.711-21.684 29.461-29.762l2.5078-2.7109c1.7773-2.3164 3.7188-4.8359 5.6055-7.2852v11.594c-6.7305-5.4492-12.383-11.375-9.1328-16.465 3.4062-5.3516 11.914-1.7031 20.426 5.1719 2.9648 2.3984 3.4219 6.7422 1.0195 9.7188l-1.0195 1.2734c-1.7891 2.207-3.8164 4.4414-5.9648 6.5742-27.539 27.445-55.453 54.574-82.453 82.547-3.1562 3.2656-8.3633 3.3594-11.629 0.21484-1.6211-1.5703-2.4609-3.6367-2.5078-5.7344l-0.011719-0.33594-0.19141-9.1211c-0.33594-14.887 2.2305-30.656-2.582-44.539z"/>
 <path d="m964.55 635.11c5.0625 16.871 6.1797 35.16 6.5273 53.652v0.14453c0.046875 2.4961 2.1016 4.4766 4.5977 4.4297 1.2344-0.023438 2.3516-0.53906 3.1445-1.3555 6.9102-7.1055 13.871-14.242 20.746-21.301 19.621-20.617 40.234-40.391 60.227-60.719 2.7109-2.7461 5.1836-6.3594 5.6758-8.8906l0.32422-1.668c0.035157-0.22656-0.097656-0.44531-0.32422-0.49219-1.3203-0.30078-2.3398-0.070312-2.8672 0.83984-0.28906 0.50391-0.28906 1.2344-0.12109 2.1367v-3.8047c-2.5938 0.48047-6.4922 2.4609-9.4922 3.3945l5.5547-7.3203v11.664c-30.504-23.723-57.73-51.625-83.82-80.855-1.9336-2.1836-3.2031-5.8555-3.2539-7.957-0.13281-4.8008 5.1602-3.0859 9.3125-0.26562 10.465 7.1055 21.492 14.195 31.066 23.004l58.68 54.086c3.3945 3.1211 3.6133 8.4102 0.48047 11.797l-0.011718 0.023438-0.46875 0.50391c-28.441 30.625-57.203 61.008-86.773 90.758-4.4883 4.5117-11.773 4.5234-16.273 0.046875-2.2422-2.2305-3.3828-5.1602-3.3945-8.0898v-0.097656c-0.039062-17.855 0.09375-35.75 0.46484-53.664z"/>
 <path d="m981.02 530.96c-5.7109-6.3477-11.531-4.7656-17.375-0.98438 9.1797-25.238 11.242-25.105 17.375 0.98438z"/>
 <path d="m1050.5 604.21-29.461 29.762c7.4062-12.23 17.078-22.309 29.461-29.762z"/>
</svg>
