<?xml version="1.0" encoding="UTF-8"?>
<svg width="1200pt" height="1200pt" version="1.1" viewBox="0 0 1200 1200" xmlns="http://www.w3.org/2000/svg">
 <path d="m1051.8 410.64c-0.99609-1.3828-2.1211-2.668-3.3594-3.8398l-68.879-54.48c-4.5586-3.6016-9.6016-8.1602-5.0391-13.441 1.9219-2.2812 9.9609-1.9219 13.68 0h-0.003906c34.004 18.645 65.262 41.902 92.879 69.121 18.602 16.68 34.922 36 52.562 54.961 3.8398 4.0781 9.2383 9.6016 4.4414 15h-0.003906c-4.1289 4.0938-9.6641 6.4531-15.477 6.5977-55.68 0-111.36-0.71875-167.04-1.1992h-0.003906c-4.0508 0.035156-8.0898-0.48828-12-1.5586-2.1602 0-5.0391-3.2383-5.0391-4.9219 0.13281-2.7578 1.5547-5.293 3.8398-6.8398 4.6875-2.25 9.7148-3.7109 14.879-4.3203 17.879-1.6797 36-2.7617 53.762-3.9609v0.003907c5.2266-0.17188 10.402-1.1016 15.359-2.7617-38.762-9.4805-77.281-20.16-116.4-27.961-62.641-12.48-125.68-23.801-189.12-33.961-28.199-4.6797-57.121-5.6406-85.801-7.8008v0.003906c-64.238-5.2461-128.86-3.5156-192.72 5.1602-92.211 11.801-179.87 46.996-254.64 102.24-41.887 29.309-75.059 69.406-96 116.04-13.371 29.066-19.547 60.926-18 92.883 5.3984 72.719 75.48 134.4 145.32 126.24 31.078-3.6016 50.879-24.961 48-55.801-3.0508-16.559-8.1289-32.68-15.121-48-1.5977-3.8672-4.3945-7.1211-7.9805-9.2812-3.5859-2.1602-7.7695-3.1133-11.938-2.7188-9.3594 0-13.922-4.0781-13.32-10.922 0.60156-6.8398 5.6406-10.078 15-9.1211v0.003906c20.059 1.1719 39.168 8.9336 54.359 22.078 11.828 11.801 19.246 27.309 21 43.922 9.8398 56.879-29.641 108-99.238 106.68-20.996-0.70703-41.438-6.9141-59.281-18-32.812-18.516-58.934-46.918-74.645-81.16-15.711-34.242-20.203-72.574-12.836-109.52 3.8906-20.793 10.551-40.973 19.801-60 23.109-48.656 55.051-92.598 94.199-129.6 48.977-44.348 106.75-77.879 169.56-98.398 96.941-32.711 199.35-46.121 301.44-39.48 54.961 2.7617 110.04 7.3203 164.52 14.762 78.695 11.078 155.85 31.211 229.92 60 2.1602 0.71875 4.918 1.918 9.3594 3.3594z"/>
</svg>
