<?xml version="1.0" encoding="UTF-8"?>
<svg width="1200pt" height="1200pt" version="1.1" viewBox="0 0 1200 1200" xmlns="http://www.w3.org/2000/svg">
 <path d="m945.15 593.1c-17.559-12.82-33.711-24.098-49.258-36.152-9.6992-7.5195-22.965-15.109-15.332-30.332 7.2891-14.539 22.035-16.125 37.062-16.633 42.762-1.4453 80.57 15.559 118.38 31.664 33 14.051 65.125 30.191 97.355 45.977 5.2305 3.4922 9.9688 7.668 14.094 12.414-45.555 25.965-92.391 49.617-140.33 70.863-28.09 12.039-56.836 22.656-88.574 18.141-24.266-3.457-31.098-15.18-20.117-37.191h-0.003906c4.1758-7.2266 9.2461-13.895 15.09-19.855 4.9648-5.6758 10.703-10.68 18.934-18.762-88.918 0.70703-174.28 1.5547-259.65 2.0195-85.438 0.46094-170.88 0.54297-254.52 4.6758-6.6328 3.4727-13.297 6.8867-19.887 10.434-16.766 9.0234-33.719 17.727-50.18 27.273-16.438 9.5391-31.895 20.895-48.816 29.387-4.9023 2.4609-13.371-2.1914-20.203-3.5859l0.33594-5.6875c29.492-17.707 58.988-35.41 90.301-54.211-36.52-17.055-93.836-5.1172-123.27 23.047-7.9141 8.1992-16.492 15.723-25.656 22.492-3.6758 2.4922-10.625 0.14844-16.086 0.007813 1.6094-5.1211 1.6602-12 5.1055-15.059 15.332-12.402 29.875-25.75 43.535-39.973l-53.027 2.8555c-7.8789 6.0508-16.133 11.59-24.719 16.59-17.996 8.7031-36.395 16.586-54.75 24.527h0.003906c-4.9141 2.6328-10.324 4.2148-15.879 4.6445-3.6641-0.097656-7.2109-4.5391-10.812-7.0391 2.2109-3.1602 4.8516-5.9961 7.8477-8.4258 15.121-8.2266 29.406-17.91 42.648-28.914-25.027 1.4375-50.098 2.4062-75.059 4.5742-8.5625 0.74219-16.195 2.4219-17.082-9.0156-0.90625-11.707 6.1484-13.395 16.258-13.016 17.438 0.65234 34.926-0.10156 53.113-0.26953-5.6016-22.711-44.168-15.086-35.32-48.812 25.414 16.664 47.234 38.367 73.164 45.863 25.422 7.3516 55.027 0.25 87.125-0.62891-25.652-19.531-47.332-36.035-69.012-52.543l4.7383-8.75h-0.003907c7.0586 1.7891 13.902 4.3281 20.418 7.5742 25.676 16.281 49.816 35.395 76.727 49.152 13.434 6.8711 31.625 4.4414 47.66 6.2188l1.5859-4.2617c-24.387-16-48.875-31.848-73.066-48.137h0.003907c-4.6797-3.2461-8.6445-7.4219-11.637-12.266-0.96094-1.5469 2.9336-8.5977 3.9219-8.4531h-0.003906c5.8086 0.48828 11.449 2.1953 16.551 5.0156 31.328 20.609 62.234 41.859 93.445 62.656 20.879 13.914 44.605 7.1953 66.828 7.0977 68.82-0.30469 137.62-3.2109 206.45-4.2344 59.387-0.87891 118.79-0.34766 178.19-0.83984 44.52-0.36719 89.039-1.3672 135.39-2.1172zm181.4 10.469h0.003906c-3.8398-3.9102-8.0586-7.4297-12.594-10.5-43.188-18.871-85.707-39.695-130.05-55.312-24.184-6.2695-49.066-9.457-74.051-9.4844-8.5195-0.67969-18.074 4.4492-7.7891 13.973 23.863 22.09 50.43 40.926 83.852 44.629 12.902 1.4297-43.102 37.004-63.605 61.215-4.3008 7.1875-7.4414 15.008-9.3086 23.172 7.9922 2.9922 16.477 4.457 25.012 4.3203 25.508-5.207 50.582-12.352 75.004-21.375 37.125-14.715 73.074-32.402 113.54-50.637z"/>
</svg>
