<?xml version="1.0" encoding="UTF-8"?>
<svg width="1200pt" height="1200pt" version="1.1" viewBox="0 0 1200 1200" xmlns="http://www.w3.org/2000/svg">
 <path d="m1027.2 285.6-10.801 8.3984c-36 26.398-81.602 39.602-126 37.199l-15.602-1.1992 12 9.6016c20.398 16.801 49.199 24 74.398 19.199-26.398 25.199-56.398 49.199-85.199 70.801-20.398 15.602-111.6 72-139.2 85.199-21.602 9.6016-44.398 19.199-67.199 27.602 7.1992-15.602 12-31.199 8.3984-49.199-7.1992-37.199-45.602-58.801-75.602-66-38.398-8.3984-79.199-3.6016-111.6 13.199-34.801 19.199-61.199 51.602-68.398 88.801-1.1992 6-2.3984 14.398 0 22.801 2.3984 8.3984 8.3984 16.801 18 24 37.199 27.602 90 19.199 130.8 8.3984 24-6 49.199-13.199 73.199-21.602-6 7.1992-12 13.199-16.801 18-80.398 79.199-178.8 141.6-285.6 178.8-8.3984 3.6016-18 6-27.602 8.3984-14.398-10.801-36-3.6016-44.398-2.3984l-85.199 24 30 2.3984c34.801 2.3984 68.398-3.6016 97.199-12 0 1.1992 4.8008 10.801-4.8008 87.602l10.801 1.1992c7.1992-68.398 6-86.398 3.6016-92.398 8.3984-2.3984 15.602-4.8008 22.801-8.3984 108-38.398 207.6-100.8 289.2-181.2 9.6016-8.3984 19.199-19.199 27.602-32.398 27.602-9.6016 54-20.398 80.398-32.398 27.602-12 120-69.602 140.4-86.398 34.801-26.398 69.602-54 100.8-86.398l16.801-18-22.801 9.6016c-21.602 9.6016-48 7.1992-69.602-3.6016 37.199-1.1992 73.199-12 104.4-32.398-6 28.801-7.1992 58.801-4.8008 88.801-8.3984-15.602-18-31.199-19.199-33.602l-8.3906 11.988c3.6016 4.8008 30 51.602 32.398 61.199l10.801-2.3984c-8.3984-43.199-7.1992-88.801 2.3984-132zm-771.6 496.8 15.602-4.8008c8.3984-2.3984 15.602-3.6016 21.602-3.6016h3.6016c-14.406 3.6055-27.605 6.0039-40.805 8.4023zm398.4-234c-28.801 9.6016-57.602 19.199-86.398 26.398-38.398 10.801-87.602 19.199-122.4-6-7.1992-6-12-12-14.398-18-1.1992-6 0-13.199 1.1992-18 7.1992-33.602 31.199-64.801 63.602-81.602 20.398-10.801 44.398-16.801 68.398-16.801 12 0 24 1.1992 36 3.6016 27.602 6 62.398 25.199 68.398 57.602 2.3984 19.203-4.8008 37.203-14.402 52.801z" fill="#1b1b1a"/>
</svg>
